<?xml version="1.0" encoding="UTF-8" standalone="no"?>
<svg
   version="1.1"
   id="Layer_1"
   x="0px"
   y="0px"
   viewBox="0 0 32 32.000002"
   xml:space="preserve"
   sodipodi:docname="water.svg"
   width="32"
   height="32"
   inkscape:version="1.1.2 (0a00cf5339, 2022-02-04)"
   xmlns:inkscape="http://www.inkscape.org/namespaces/inkscape"
   xmlns:sodipodi="http://sodipodi.sourceforge.net/DTD/sodipodi-0.dtd"
   xmlns="http://www.w3.org/2000/svg"
   xmlns:svg="http://www.w3.org/2000/svg"><defs
     id="defs864" /><sodipodi:namedview
     id="namedview862"
     pagecolor="#ffffff"
     bordercolor="#666666"
     borderopacity="1.0"
     inkscape:pageshadow="2"
     inkscape:pageopacity="0.0"
     inkscape:pagecheckerboard="0"
     showgrid="false"
     width="2px"
     inkscape:zoom="4.1683661"
     inkscape:cx="61.414951"
     inkscape:cy="61.295"
     inkscape:window-width="1366"
     inkscape:window-height="719"
     inkscape:window-x="0"
     inkscape:window-y="25"
     inkscape:window-maximized="1"
     inkscape:current-layer="Layer_1" /><style
     type="text/css"
     id="style853"><![CDATA[
	.st0{fill-rule:evenodd;clip-rule:evenodd;fill:#3AB7FC;}
	.st1{fill:#FFFFFF;}
]]></style><g
     id="g859"
     transform="matrix(0.19999579,0,0,0.20000516,3.7273284,3.8879707)"><path
       class="st0"
       d="m 84.92,112.01 c 2.92,0 5.29,2.37 5.29,5.29 0,2.92 -2.37,5.29 -5.29,5.29 -2.92,0 -5.29,-2.37 -5.29,-5.29 -0.01,-2.92 2.36,-5.29 5.29,-5.29 z M 62.66,11.05 c -1.58,-2.39 3.35,-9.11 6.99,-8.14 -3.09,1.96 -5.43,5.1 -6.99,8.14 z m -34,18.31 c -4.17,0.12 -5.43,-11.15 -1.03,-13.11 -1.32,4.17 -0.86,9.04 1.03,13.11 z m 66.08,16.18 c 5.52,0.65 10.22,-8.19 6.9,-12.42 -0.29,5.86 -3.59,9.12 -6.9,12.42 z m 20.07,23.95 c 1.35,-2.81 -1.79,-6.89 -5.65,-6.58 2.79,1.36 4.49,3.68 5.65,6.58 z M 2.63,51.71 C 1.35,49.78 5.34,44.35 8.28,45.13 5.68,46.67 3.8,49.21 2.63,51.71 Z M 14.81,72 c -0.47,2.53 5.94,6.36 8.61,4.29 C 20.19,75.75 17.16,73.97 14.81,72 Z M 59.12,34.1 c -0.78,-5.39 -1.2,-10.54 -1.01,-15.29 0.18,-4.52 1.04,-9.77 3.24,-13.55 4.61,-7.94 15.81,-6.39 17.28,1.33 0.49,2.57 -0.17,5.52 -2.48,7.92 -1.54,1.6 -3.89,3.06 -6,4.92 -4.98,4.4 -8.46,8.53 -11.03,14.67 z m 31.61,31 c 3.67,-1.58 7.23,-2.85 10.63,-3.62 3.24,-0.73 7.11,-1.11 10.21,-0.28 6.5,1.75 7.53,9.98 2.34,12.49 -1.73,0.83 -3.94,0.93 -6.08,-0.25 -1.43,-0.79 -2.91,-2.17 -4.62,-3.31 -4.06,-2.7 -7.64,-4.38 -12.48,-5.03 z M 26.57,52.71 C 23.5,50.16 20.44,47.93 17.4,46.23 14.5,44.61 10.89,43.15 7.69,43.07 0.96,42.91 -2.35,50.51 1.91,54.38 c 1.42,1.29 3.52,2.01 5.9,1.48 1.59,-0.35 3.4,-1.26 5.37,-1.87 4.66,-1.42 8.57,-2.02 13.39,-1.28 z M 23.15,15.39 c 5.13,-6.98 17.57,-7.8 22.35,6.1 0.83,2.48 1.67,4.94 2.52,7.38 0.54,1.54 1.18,3.63 1.93,5.81 5.31,15.3 14,14.95 23.68,3.34 4.57,-5.48 6.4,-11.34 13.71,-14.09 8.9,-3.35 18.01,2.43 19.42,11.03 1.84,11.2 -5.26,13.66 -12.71,17.96 -2.33,1.35 -4.93,2.98 -7.25,4.78 -3.5,2.72 -6.34,5.83 -6.58,8.92 -0.62,8.13 25.61,13.28 35.1,18.59 13.22,6.23 7.37,22.87 -4.29,22.97 -3.2,0.03 -6.45,-1.34 -9.74,-3.99 L 78.35,83.89 c -1.48,-1.34 -3.49,-1.26 -4.72,-0.19 -2.25,1.94 3.91,16.36 4.39,18.51 1.87,8.47 -9.49,14.09 -12.72,1.17 C 62.91,93.81 54.93,82.24 50.13,93.63 l -0.88,2.79 c -1.48,4.68 -2.45,12.39 -8.19,13.37 -4.91,0.84 -9.63,-4.42 -7.77,-9.23 2.09,-4.46 6.94,-11.21 5,-16.09 -0.42,-1.07 -1.4,-2.1 -2.31,-2.78 -3.89,-2.91 -8.07,-1.45 -12.35,-1.17 -2.89,0.19 -5.13,-0.03 -6.89,-0.71 -5.55,-2.16 -6.85,-8 -4.71,-12.3 3.8,-7.66 11.15,-3.43 17.7,-6.02 C 44.61,55.63 33.16,42.04 27.54,35.2 22.77,29.42 17.59,22.94 23.15,15.39 Z m -6.62,76.63 c 1.79,0 3.24,1.45 3.24,3.24 0,1.79 -1.45,3.24 -3.24,3.24 -1.79,0 -3.24,-1.45 -3.24,-3.24 0,-1.79 1.46,-3.24 3.24,-3.24 z m 41.84,19.86 c 1.23,0 2.22,1 2.22,2.22 0,1.22 -1,2.22 -2.22,2.22 -1.23,0 -2.22,-1 -2.22,-2.22 0,-1.22 0.99,-2.22 2.22,-2.22 z"
       id="path855" /><path
       class="st1"
       d="m 62.66,11.05 c -1.58,-2.39 3.35,-9.11 6.99,-8.14 -3.09,1.96 -5.43,5.1 -6.99,8.14 z m -34,18.31 c -4.17,0.12 -5.43,-11.15 -1.03,-13.11 -1.32,4.17 -0.86,9.04 1.03,13.11 z m 66.08,16.18 c 5.52,0.65 10.22,-8.19 6.9,-12.42 -0.29,5.86 -3.59,9.12 -6.9,12.42 z m 20.07,23.95 c 1.35,-2.81 -1.79,-6.89 -5.65,-6.58 2.79,1.36 4.49,3.68 5.65,6.58 z M 2.63,51.71 C 1.35,49.78 5.34,44.35 8.28,45.13 5.68,46.67 3.8,49.21 2.63,51.71 Z M 14.81,72 c -0.47,2.53 5.94,6.36 8.61,4.29 C 20.19,75.75 17.16,73.97 14.81,72 Z"
       id="path857" /></g></svg>
